<mxfile host="app.diagrams.net" agent="Mozilla/5.0 (Windows NT 10.0; Win64; x64) AppleWebKit/537.36 (KHTML, like Gecko) Chrome/139.0.0.0 Safari/537.36 Edg/139.0.0.0" version="27.1.4">
  <diagram name="Workload Evolution" id="workload_evolution">
    <mxGraphModel dx="1600" dy="900" grid="1" gridSize="10" guides="1" tooltips="1" connect="1" arrows="1" fold="1" page="1" pageScale="1" pageWidth="1600" pageHeight="900" math="0" shadow="0">
      <root>
        <mxCell id="0" />
        <mxCell id="1" parent="0" />
        
        <!-- 整体背景 -->
        <mxCell id="bg" value="" style="rounded=1;whiteSpace=wrap;html=1;fillColor=#f8f9fa;strokeColor=none;" vertex="1" parent="1">
          <mxGeometry x="20" y="20" width="1560" height="860" as="geometry" />
        </mxCell>
        
        <!-- 主标题 -->
        <mxCell id="main_title" value="Workload Evolution: From Cloud-Native to AI Computing" style="text;html=1;strokeColor=none;fillColor=none;align=center;verticalAlign=middle;whiteSpace=wrap;rounded=0;fontSize=24;fontStyle=1;fontColor=#2c3e50;" vertex="1" parent="1">
          <mxGeometry x="500" y="40" width="600" height="40" as="geometry" />
        </mxCell>
        
        <!-- 左半部分：云原生调度 -->
        <mxCell id="cloud_native_bg" value="" style="rounded=1;whiteSpace=wrap;html=1;fillColor=#ffffff;strokeColor=#3498db;strokeWidth=3;shadow=1;" vertex="1" parent="1">
          <mxGeometry x="50" y="120" width="650" height="600" as="geometry" />
        </mxCell>
        <mxCell id="cloud_native_title" value="Cloud-Native Scheduling" style="text;html=1;strokeColor=none;fillColor=none;align=center;verticalAlign=middle;whiteSpace=wrap;rounded=0;fontSize=20;fontStyle=1;fontColor=#3498db;" vertex="1" parent="1">
          <mxGeometry x="250" y="140" width="250" height="30" as="geometry" />
        </mxCell>
        
        <!-- K8s集群节点 -->
        <mxCell id="k8s_node1" value="" style="rounded=1;whiteSpace=wrap;html=1;fillColor=#ecf0f1;strokeColor=#95a5a6;strokeWidth=2;shadow=1;" vertex="1" parent="1">
          <mxGeometry x="80" y="200" width="180" height="150" as="geometry" />
        </mxCell>
        <mxCell id="k8s_node1_title" value="Node 1" style="text;html=1;strokeColor=none;fillColor=none;align=center;verticalAlign=middle;whiteSpace=wrap;rounded=0;fontSize=14;fontStyle=1;fontColor=#7f8c8d;" vertex="1" parent="1">
          <mxGeometry x="130" y="210" width="80" height="20" as="geometry" />
        </mxCell>
        
        <mxCell id="k8s_node2" value="" style="rounded=1;whiteSpace=wrap;html=1;fillColor=#ecf0f1;strokeColor=#95a5a6;strokeWidth=2;shadow=1;" vertex="1" parent="1">
          <mxGeometry x="290" y="200" width="180" height="150" as="geometry" />
        </mxCell>
        <mxCell id="k8s_node2_title" value="Node 2" style="text;html=1;strokeColor=none;fillColor=none;align=center;verticalAlign=middle;whiteSpace=wrap;rounded=0;fontSize=14;fontStyle=1;fontColor=#7f8c8d;" vertex="1" parent="1">
          <mxGeometry x="340" y="210" width="80" height="20" as="geometry" />
        </mxCell>
        
        <mxCell id="k8s_node3" value="" style="rounded=1;whiteSpace=wrap;html=1;fillColor=#ecf0f1;strokeColor=#95a5a6;strokeWidth=2;shadow=1;" vertex="1" parent="1">
          <mxGeometry x="500" y="200" width="180" height="150" as="geometry" />
        </mxCell>
        <mxCell id="k8s_node3_title" value="Node 3" style="text;html=1;strokeColor=none;fillColor=none;align=center;verticalAlign=middle;whiteSpace=wrap;rounded=0;fontSize=14;fontStyle=1;fontColor=#7f8c8d;" vertex="1" parent="1">
          <mxGeometry x="550" y="210" width="80" height="20" as="geometry" />
        </mxCell>
        
        <!-- Node 1的Pod -->
        <mxCell id="pod1_1" value="Web" style="rounded=1;whiteSpace=wrap;html=1;fillColor=#e8f5e8;strokeColor=#27ae60;fontSize=10;fontStyle=1;" vertex="1" parent="1">
          <mxGeometry x="90" y="240" width="40" height="25" as="geometry" />
        </mxCell>
        <mxCell id="pod1_2" value="API" style="rounded=1;whiteSpace=wrap;html=1;fillColor=#fff2e8;strokeColor=#e67e22;fontSize=10;fontStyle=1;" vertex="1" parent="1">
          <mxGeometry x="140" y="240" width="40" height="25" as="geometry" />
        </mxCell>
        <mxCell id="pod1_3" value="Auth" style="rounded=1;whiteSpace=wrap;html=1;fillColor=#f8e8ff;strokeColor=#8e44ad;fontSize=10;fontStyle=1;" vertex="1" parent="1">
          <mxGeometry x="200" y="240" width="40" height="25" as="geometry" />
        </mxCell>
        <mxCell id="pod1_4" value="Cache" style="rounded=1;whiteSpace=wrap;html=1;fillColor=#fff8e8;strokeColor=#f39c12;fontSize=10;fontStyle=1;" vertex="1" parent="1">
          <mxGeometry x="90" y="280" width="40" height="25" as="geometry" />
        </mxCell>
        <mxCell id="pod1_5" value="Queue" style="rounded=1;whiteSpace=wrap;html=1;fillColor=#e8f8ff;strokeColor=#3498db;fontSize=10;fontStyle=1;" vertex="1" parent="1">
          <mxGeometry x="140" y="280" width="40" height="25" as="geometry" />
        </mxCell>
        <mxCell id="pod1_6" value="Log" style="rounded=1;whiteSpace=wrap;html=1;fillColor=#ffe8e8;strokeColor=#e74c3c;fontSize=10;fontStyle=1;" vertex="1" parent="1">
          <mxGeometry x="200" y="280" width="40" height="25" as="geometry" />
        </mxCell>
        
        <!-- Node 2的Pod -->
        <mxCell id="pod2_1" value="DB" style="rounded=1;whiteSpace=wrap;html=1;fillColor=#e8f5e8;strokeColor=#27ae60;fontSize=10;fontStyle=1;" vertex="1" parent="1">
          <mxGeometry x="300" y="240" width="40" height="25" as="geometry" />
        </mxCell>
        <mxCell id="pod2_2" value="Search" style="rounded=1;whiteSpace=wrap;html=1;fillColor=#fff2e8;strokeColor=#e67e22;fontSize=10;fontStyle=1;" vertex="1" parent="1">
          <mxGeometry x="350" y="240" width="40" height="25" as="geometry" />
        </mxCell>
        <mxCell id="pod2_3" value="ML" style="rounded=1;whiteSpace=wrap;html=1;fillColor=#f8e8ff;strokeColor=#8e44ad;fontSize=10;fontStyle=1;" vertex="1" parent="1">
          <mxGeometry x="410" y="240" width="40" height="25" as="geometry" />
        </mxCell>
        <mxCell id="pod2_4" value="Analytics" style="rounded=1;whiteSpace=wrap;html=1;fillColor=#fff8e8;strokeColor=#f39c12;fontSize=10;fontStyle=1;" vertex="1" parent="1">
          <mxGeometry x="300" y="280" width="50" height="25" as="geometry" />
        </mxCell>
        <mxCell id="pod2_5" value="Monitor" style="rounded=1;whiteSpace=wrap;html=1;fillColor=#e8f8ff;strokeColor=#3498db;fontSize=10;fontStyle=1;" vertex="1" parent="1">
          <mxGeometry x="360" y="280" width="50" height="25" as="geometry" />
        </mxCell>
        <mxCell id="pod2_6" value="Backup" style="rounded=1;whiteSpace=wrap;html=1;fillColor=#ffe8e8;strokeColor=#e74c3c;fontSize=10;fontStyle=1;" vertex="1" parent="1">
          <mxGeometry x="420" y="280" width="40" height="25" as="geometry" />
        </mxCell>
        
        <!-- Node 3的Pod -->
        <mxCell id="pod3_1" value="Gateway" style="rounded=1;whiteSpace=wrap;html=1;fillColor=#e8f5e8;strokeColor=#27ae60;fontSize=10;fontStyle=1;" vertex="1" parent="1">
          <mxGeometry x="510" y="240" width="50" height="25" as="geometry" />
        </mxCell>
        <mxCell id="pod3_2" value="Config" style="rounded=1;whiteSpace=wrap;html=1;fillColor=#fff2e8;strokeColor=#e67e22;fontSize=10;fontStyle=1;" vertex="1" parent="1">
          <mxGeometry x="570" y="240" width="40" height="25" as="geometry" />
        </mxCell>
        <mxCell id="pod3_3" value="Registry" style="rounded=1;whiteSpace=wrap;html=1;fillColor=#f8e8ff;strokeColor=#8e44ad;fontSize=10;fontStyle=1;" vertex="1" parent="1">
          <mxGeometry x="620" y="240" width="50" height="25" as="geometry" />
        </mxCell>
        <mxCell id="pod3_4" value="Scheduler" style="rounded=1;whiteSpace=wrap;html=1;fillColor=#fff8e8;strokeColor=#f39c12;fontSize=10;fontStyle=1;" vertex="1" parent="1">
          <mxGeometry x="510" y="280" width="55" height="25" as="geometry" />
        </mxCell>
        <mxCell id="pod3_5" value="Proxy" style="rounded=1;whiteSpace=wrap;html=1;fillColor=#e8f8ff;strokeColor=#3498db;fontSize=10;fontStyle=1;" vertex="1" parent="1">
          <mxGeometry x="575" y="280" width="40" height="25" as="geometry" />
        </mxCell>
        <mxCell id="pod3_6" value="LB" style="rounded=1;whiteSpace=wrap;html=1;fillColor=#ffe8e8;strokeColor=#e74c3c;fontSize=10;fontStyle=1;" vertex="1" parent="1">
          <mxGeometry x="625" y="280" width="35" height="25" as="geometry" />
        </mxCell>
        
        <!-- Pod之间的连接线 -->
        <mxCell id="pod_connection_1" value="" style="endArrow=none;html=1;rounded=1;strokeWidth=1;strokeColor=#bdc3c7;curved=1;" edge="1" parent="1" source="pod1_1" target="pod1_2">
          <mxGeometry width="50" height="50" relative="1" as="geometry">
            <mxPoint x="400" y="350" as="sourcePoint" />
            <mxPoint x="450" y="300" as="targetPoint" />
          </mxGeometry>
        </mxCell>
        <mxCell id="pod_connection_2" value="" style="endArrow=none;html=1;rounded=1;strokeWidth=1;strokeColor=#bdc3c7;curved=1;" edge="1" parent="1" source="pod1_2" target="pod2_1">
          <mxGeometry width="50" height="50" relative="1" as="geometry">
            <mxPoint x="400" y="350" as="sourcePoint" />
            <mxPoint x="450" y="300" as="targetPoint" />
          </mxGeometry>
        </mxCell>
        <mxCell id="pod_connection_3" value="" style="endArrow=none;html=1;rounded=1;strokeWidth=1;strokeColor=#bdc3c7;curved=1;" edge="1" parent="1" source="pod2_2" target="pod3_1">
          <mxGeometry width="50" height="50" relative="1" as="geometry">
            <mxPoint x="400" y="350" as="sourcePoint" />
            <mxPoint x="450" y="300" as="targetPoint" />
          </mxGeometry>
        </mxCell>
        
        <!-- 资源标注 -->
        <mxCell id="cloud_resources" value="💻 Core Resources:&lt;br&gt;• CPU Cores&lt;br&gt;• Memory&lt;br&gt;• Network I/O" style="text;html=1;strokeColor=#3498db;fillColor=#ebf3fd;align=left;verticalAlign=middle;whiteSpace=wrap;rounded=1;fontSize=12;fontStyle=1;fontColor=#2c3e50;" vertex="1" parent="1">
          <mxGeometry x="80" y="380" width="120" height="80" as="geometry" />
        </mxCell>
        
        <!-- 调度目标 -->
        <mxCell id="cloud_objectives" value="🎯 调度目标:&lt;br&gt;• 资源装箱&lt;br&gt;• 通用QoS&lt;br&gt;• 高可用性" style="text;html=1;strokeColor=#27ae60;fillColor=#eafaf1;align=left;verticalAlign=middle;whiteSpace=wrap;rounded=1;fontSize=12;fontStyle=1;fontColor=#2c3e50;" vertex="1" parent="1">
          <mxGeometry x="500" y="580" width="120" height="80" as="geometry" />
        </mxCell>
        
        <!-- 中间演进箭头 -->
        <mxCell id="evolution_arrow" value="" style="shape=singleArrow;whiteSpace=wrap;html=1;fillColor=#74b9ff;strokeColor=#0984e3;shadow=1;" vertex="1" parent="1">
          <mxGeometry x="720" y="400" width="160" height="80" as="geometry" />
        </mxCell>
        <mxCell id="evolution_text" value="负载特性演进&lt;br&gt;Workload Evolution" style="text;html=1;strokeColor=none;fillColor=none;align=center;verticalAlign=middle;whiteSpace=wrap;rounded=0;fontSize=16;fontStyle=1;fontColor=#ffffff;" vertex="1" parent="1">
          <mxGeometry x="740" y="425" width="120" height="30" as="geometry" />
        </mxCell>
        
        <!-- 右半部分：智算调度 -->
        <mxCell id="ai_computing_bg" value="" style="rounded=1;whiteSpace=wrap;html=1;fillColor=#ffffff;strokeColor=#e74c3c;strokeWidth=3;shadow=1;" vertex="1" parent="1">
          <mxGeometry x="900" y="120" width="650" height="600" as="geometry" />
        </mxCell>
        <mxCell id="ai_computing_title" value="AI Computing Scheduling" style="text;html=1;strokeColor=none;fillColor=none;align=center;verticalAlign=middle;whiteSpace=wrap;rounded=0;fontSize=20;fontStyle=1;fontColor=#e74c3c;" vertex="1" parent="1">
          <mxGeometry x="1100" y="140" width="250" height="30" as="geometry" />
        </mxCell>
        
        <!-- GPU节点1 -->
        <mxCell id="gpu_node1" value="" style="rounded=1;whiteSpace=wrap;html=1;fillColor=#f8f9fa;strokeColor=#2d3436;strokeWidth=3;shadow=1;" vertex="1" parent="1">
          <mxGeometry x="950" y="200" width="250" height="200" as="geometry" />
        </mxCell>
        <mxCell id="gpu_node1_title" value="GPU Node 1" style="text;html=1;strokeColor=none;fillColor=none;align=center;verticalAlign=middle;whiteSpace=wrap;rounded=0;fontSize=16;fontStyle=1;fontColor=#2d3436;" vertex="1" parent="1">
          <mxGeometry x="1025" y="210" width="100" height="25" as="geometry" />
        </mxCell>
        
        <!-- GPU卡 -->
        <mxCell id="gpu1_1" value="A100&lt;br&gt;80GB" style="rounded=1;whiteSpace=wrap;html=1;fillColor=#00b894;strokeColor=#00a085;fontSize=12;fontStyle=1;fontColor=#ffffff;shadow=1;" vertex="1" parent="1">
          <mxGeometry x="970" y="250" width="60" height="60" as="geometry" />
        </mxCell>
        <mxCell id="gpu1_2" value="A100&lt;br&gt;80GB" style="rounded=1;whiteSpace=wrap;html=1;fillColor=#00b894;strokeColor=#00a085;fontSize=12;fontStyle=1;fontColor=#ffffff;shadow=1;" vertex="1" parent="1">
          <mxGeometry x="1040" y="250" width="60" height="60" as="geometry" />
        </mxCell>
        <mxCell id="gpu1_3" value="V100&lt;br&gt;32GB" style="rounded=1;whiteSpace=wrap;html=1;fillColor=#55a3ff;strokeColor=#4285f4;fontSize=12;fontStyle=1;fontColor=#ffffff;shadow=1;" vertex="1" parent="1">
          <mxGeometry x="1120" y="250" width="60" height="60" as="geometry" />
        </mxCell>
        <mxCell id="gpu1_4" value="V100&lt;br&gt;32GB" style="rounded=1;whiteSpace=wrap;html=1;fillColor=#55a3ff;strokeColor=#4285f4;fontSize=12;fontStyle=1;fontColor=#ffffff;shadow=1;" vertex="1" parent="1">
          <mxGeometry x="970" y="320" width="60" height="60" as="geometry" />
        </mxCell>
        <mxCell id="gpu1_5" value="H100&lt;br&gt;80GB" style="rounded=1;whiteSpace=wrap;html=1;fillColor=#6c5ce7;strokeColor=#5f3dc4;fontSize=12;fontStyle=1;fontColor=#ffffff;shadow=1;" vertex="1" parent="1">
          <mxGeometry x="1040" y="320" width="60" height="60" as="geometry" />
        </mxCell>
        <mxCell id="gpu1_6" value="H100&lt;br&gt;80GB" style="rounded=1;whiteSpace=wrap;html=1;fillColor=#6c5ce7;strokeColor=#5f3dc4;fontSize=12;fontStyle=1;fontColor=#ffffff;shadow=1;" vertex="1" parent="1">
          <mxGeometry x="1120" y="320" width="60" height="60" as="geometry" />
        </mxCell>
        
        <!-- GPU节点2 -->
        <mxCell id="gpu_node2" value="" style="rounded=1;whiteSpace=wrap;html=1;fillColor=#f8f9fa;strokeColor=#2d3436;strokeWidth=3;shadow=1;" vertex="1" parent="1">
          <mxGeometry x="1250" y="200" width="250" height="200" as="geometry" />
        </mxCell>
        <mxCell id="gpu_node2_title" value="GPU Node 2" style="text;html=1;strokeColor=none;fillColor=none;align=center;verticalAlign=middle;whiteSpace=wrap;rounded=0;fontSize=16;fontStyle=1;fontColor=#2d3436;" vertex="1" parent="1">
          <mxGeometry x="1325" y="210" width="100" height="25" as="geometry" />
        </mxCell>
        
        <mxCell id="gpu2_1" value="A100&lt;br&gt;80GB" style="rounded=1;whiteSpace=wrap;html=1;fillColor=#00b894;strokeColor=#00a085;fontSize=12;fontStyle=1;fontColor=#ffffff;shadow=1;" vertex="1" parent="1">
          <mxGeometry x="1270" y="250" width="60" height="60" as="geometry" />
        </mxCell>
        <mxCell id="gpu2_2" value="A100&lt;br&gt;80GB" style="rounded=1;whiteSpace=wrap;html=1;fillColor=#00b894;strokeColor=#00a085;fontSize=12;fontStyle=1;fontColor=#ffffff;shadow=1;" vertex="1" parent="1">
          <mxGeometry x="1340" y="250" width="60" height="60" as="geometry" />
        </mxCell>
        <mxCell id="gpu2_3" value="A100&lt;br&gt;80GB" style="rounded=1;whiteSpace=wrap;html=1;fillColor=#00b894;strokeColor=#00a085;fontSize=12;fontStyle=1;fontColor=#ffffff;shadow=1;" vertex="1" parent="1">
          <mxGeometry x="1420" y="250" width="60" height="60" as="geometry" />
        </mxCell>
        <mxCell id="gpu2_4" value="A100&lt;br&gt;80GB" style="rounded=1;whiteSpace=wrap;html=1;fillColor=#00b894;strokeColor=#00a085;fontSize=12;fontStyle=1;fontColor=#ffffff;shadow=1;" vertex="1" parent="1">
          <mxGeometry x="1270" y="320" width="60" height="60" as="geometry" />
        </mxCell>
        <mxCell id="gpu2_5" value="A100&lt;br&gt;80GB" style="rounded=1;whiteSpace=wrap;html=1;fillColor=#00b894;strokeColor=#00a085;fontSize=12;fontStyle=1;fontColor=#ffffff;shadow=1;" vertex="1" parent="1">
          <mxGeometry x="1340" y="320" width="60" height="60" as="geometry" />
        </mxCell>
        <mxCell id="gpu2_6" value="A100&lt;br&gt;80GB" style="rounded=1;whiteSpace=wrap;html=1;fillColor=#00b894;strokeColor=#00a085;fontSize=12;fontStyle=1;fontColor=#ffffff;shadow=1;" vertex="1" parent="1">
          <mxGeometry x="1420" y="320" width="60" height="60" as="geometry" />
        </mxCell>
        
        <!-- 大型训练任务 -->
        <mxCell id="training_job1" value="LLM Training&lt;br&gt;(Multi-GPU)" style="rounded=1;whiteSpace=wrap;html=1;fillColor=#ff7675;strokeColor=#d63031;fontSize=14;fontStyle=1;fontColor=#ffffff;shadow=1;" vertex="1" parent="1">
          <mxGeometry x="950" y="450" width="120" height="60" as="geometry" />
        </mxCell>
        
        <mxCell id="training_job2" value="CV Training&lt;br&gt;(Distributed)" style="rounded=1;whiteSpace=wrap;html=1;fillColor=#fd79a8;strokeColor=#e84393;fontSize=14;fontStyle=1;fontColor=#ffffff;shadow=1;" vertex="1" parent="1">
          <mxGeometry x="1100" y="450" width="120" height="60" as="geometry" />
        </mxCell>
        
        <mxCell id="training_job3" value="Inference&lt;br&gt;Service" style="rounded=1;whiteSpace=wrap;html=1;fillColor=#fdcb6e;strokeColor=#e17055;fontSize=14;fontStyle=1;fontColor=#ffffff;shadow=1;" vertex="1" parent="1">
          <mxGeometry x="1250" y="450" width="120" height="60" as="geometry" />
        </mxCell>
        
        <mxCell id="training_job4" value="Research&lt;br&gt;Experiment" style="rounded=1;whiteSpace=wrap;html=1;fillColor=#a29bfe;strokeColor=#6c5ce7;fontSize=14;fontStyle=1;fontColor=#ffffff;shadow=1;" vertex="1" parent="1">
          <mxGeometry x="1400" y="450" width="120" height="60" as="geometry" />
        </mxCell>
        
        <!-- 性能干扰箭头 -->
        <mxCell id="interference1" value="" style="shape=flexArrow;endArrow=classic;html=1;fillColor=#ff4757;strokeColor=#c44569;strokeWidth=2;" edge="1" parent="1">
          <mxGeometry width="100" height="100" relative="1" as="geometry">
            <mxPoint x="1080" y="480" as="sourcePoint" />
            <mxPoint x="1090" y="480" as="targetPoint" />
          </mxGeometry>
        </mxCell>
        
        <mxCell id="interference2" value="" style="shape=flexArrow;endArrow=classic;html=1;fillColor=#ff4757;strokeColor=#c44569;strokeWidth=2;" edge="1" parent="1">
          <mxGeometry width="100" height="100" relative="1" as="geometry">
            <mxPoint x="1230" y="480" as="sourcePoint" />
            <mxPoint x="1240" y="480" as="targetPoint" />
          </mxGeometry>
        </mxCell>
        
        <mxCell id="interference3" value="" style="shape=flexArrow;endArrow=classic;html=1;fillColor=#ff4757;strokeColor=#c44569;strokeWidth=2;" edge="1" parent="1">
          <mxGeometry width="100" height="100" relative="1" as="geometry">
            <mxPoint x="1380" y="480" as="sourcePoint" />
            <mxPoint x="1390" y="480" as="targetPoint" />
          </mxGeometry>
        </mxCell>
        
        <!-- 性能干扰标签 -->
        <mxCell id="interference_label" value="⚡ 性能干扰" style="text;html=1;strokeColor=none;fillColor=none;align=center;verticalAlign=middle;whiteSpace=wrap;rounded=0;fontSize=12;fontStyle=1;fontColor=#ff4757;" vertex="1" parent="1">
          <mxGeometry x="1200" y="530" width="80" height="20" as="geometry" />
        </mxCell>
        
        <!-- GPU资源标注 -->
        <mxCell id="gpu_resources" value="🚀 Core Resources:&lt;br&gt;• GPU Compute&lt;br&gt;• VRAM&lt;br&gt;• NVLink&lt;br&gt;• Tensor Cores" style="text;html=1;strokeColor=#e74c3c;fillColor=#fdebeb;align=left;verticalAlign=middle;whiteSpace=wrap;rounded=1;fontSize=12;fontStyle=1;fontColor=#2c3e50;" vertex="1" parent="1">
          <mxGeometry x="950" y="550" width="140" height="100" as="geometry" />
        </mxCell>
        
        <!-- AI调度目标 -->
        <mxCell id="ai_objectives" value="🎯 调度目标:&lt;br&gt;• GPU利用率&lt;br&gt;• 任务吞吐量&lt;br&gt;• 公平性&lt;br&gt;• 性能隔离" style="text;html=1;strokeColor=#6c5ce7;fillColor=#f4f3ff;align=left;verticalAlign=middle;whiteSpace=wrap;rounded=1;fontSize=12;fontStyle=1;fontColor=#2c3e50;" vertex="1" parent="1">
          <mxGeometry x="1380" y="550" width="140" height="100" as="geometry" />
        </mxCell>
        
        <!-- 底部对比总结 -->
        <mxCell id="comparison_bg" value="" style="rounded=1;whiteSpace=wrap;html=1;fillColor=#2d3436;strokeColor=none;shadow=1;" vertex="1" parent="1">
          <mxGeometry x="300" y="760" width="1000" height="80" as="geometry" />
        </mxCell>
        <mxCell id="comparison_text" value="From Microservices to AI Workloads: Scheduling Evolution Driven by Resource Intensity and Performance Requirements" style="text;html=1;strokeColor=none;fillColor=none;align=center;verticalAlign=middle;whiteSpace=wrap;rounded=0;fontSize=18;fontStyle=1;fontColor=#ffffff;" vertex="1" parent="1">
          <mxGeometry x="320" y="785" width="960" height="30" as="geometry" />
        </mxCell>
        
      </root>
    </mxGraphModel>
  </diagram>
</mxfile>